{
  "accessors": [
    {
      "bufferView": 2,
      "componentType": 5126,
      "count": 1192,
      "max": [
        0.045704301446676254,
        -0.49751201272010803,
        0.29651498794555664
      ],
      "min": [
        -0.045704301446676254,
        -1,
        -0.29651400446891785
      ],
      "type": "VEC3"
    },
    {
      "bufferView": 2,
      "byteOffset": 14304,
      "componentType": 5126,
      "count": 1192,
      "max": [
        1,
        1,
        1
      ],
      "min": [
        -1,
        -1,
        -1
      ],
      "type": "VEC3"
    },
    {
      "bufferView": 3,
      "componentType": 5126,
      "count": 1192,
      "max": [
        0.99999922513961792,
        0.79288232326507568,
        1,
        1
      ],
      "min": [
        -0.9999992847442627,
        -0.7929222583770752,
        -0.99991750717163086,
        1
      ],
      "type": "VEC4"
    },
    {
      "bufferView": 1,
      "componentType": 5126,
      "count": 1192,
      "max": [
        0.52056801319122314,
        0.56243902444839478
      ],
      "min": [
        0.0066902800463140011,
        0.022997399792075157
      ],
      "type": "VEC2"
    },
    {
      "bufferView": 0,
      "componentType": 5125,
      "count": 5376,
      "max": [
        1191
      ],
      "min": [
        0
      ],
      "type": "SCALAR"
    },
    {
      "bufferView": 2,
      "byteOffset": 28608,
      "componentType": 5126,
      "count": 772,
      "max": [
        0.053066298365592957,
        0.84466999769210815,
        0.48546400666236877
      ],
      "min": [
        -0.052421599626541138,
        0.5889580249786377,
        0.3414979875087738
      ],
      "type": "VEC3"
    },
    {
      "bufferView": 2,
      "byteOffset": 37872,
      "componentType": 5126,
      "count": 772,
      "max": [
        1,
        1,
        1
      ],
      "min": [
        -1,
        -1,
        -1
      ],
      "type": "VEC3"
    },
    {
      "bufferView": 3,
      "byteOffset": 19072,
      "componentType": 5126,
      "count": 772,
      "max": [
        0.4295925498008728,
        0.99772292375564575,
        0.11349369585514069,
        1
      ],
      "min": [
        -1,
        -1,
        -0.99908924102783203,
        1
      ],
      "type": "VEC4"
    },
    {
      "bufferView": 1,
      "byteOffset": 9536,
      "componentType": 5126,
      "count": 772,
      "max": [
        0.99158698320388794,
        0.99414700269699097
      ],
      "min": [
        0.58669698238372803,
        0.011396399699151516
      ],
      "type": "VEC2"
    },
    {
      "bufferView": 0,
      "byteOffset": 21504,
      "componentType": 5125,
      "count": 2586,
      "max": [
        771
      ],
      "min": [
        0
      ],
      "type": "SCALAR"
    },
    {
      "bufferView": 2,
      "byteOffset": 47136,
      "componentType": 5126,
      "count": 226,
      "max": [
        0.055658899247646332,
        0.8475000262260437,
        0.4915120005607605
      ],
      "min": [
        -0.055014200508594513,
        0.58612799644470215,
        0.33414998650550842
      ],
      "type": "VEC3"
    },
    {
      "bufferView": 2,
      "byteOffset": 49848,
      "componentType": 5126,
      "count": 226,
      "max": [
        1,
        1,
        1
      ],
      "min": [
        -1,
        -1,
        -1
      ],
      "type": "VEC3"
    },
    {
      "bufferView": 3,
      "byteOffset": 31424,
      "componentType": 5126,
      "count": 226,
      "max": [
        1,
        0.42375844717025757,
        1,
        1
      ],
      "min": [
        -1,
        -1,
        -1,
        1
      ],
      "type": "VEC4"
    },
    {
      "bufferView": 1,
      "byteOffset": 15712,
      "componentType": 5126,
      "count": 226,
      "max": [
        0.83580398559570312,
        0.99083298444747925
      ],
      "min": [
        0.44964700937271118,
        0.6046760082244873
      ],
      "type": "VEC2"
    },
    {
      "bufferView": 0,
      "byteOffset": 31848,
      "componentType": 5125,
      "count": 600,
      "max": [
        225
      ],
      "min": [
        0
      ],
      "type": "SCALAR"
    },
    {
      "bufferView": 2,
      "byteOffset": 52560,
      "componentType": 5126,
      "count": 892,
      "max": [
        0.27440100908279419,
        1,
        0.51130598783493042
      ],
      "min": [
        -0.27440100908279419,
        -0.50491100549697876,
        -0.51130598783493042
      ],
      "type": "VEC3"
    },
    {
      "bufferView": 2,
      "byteOffset": 63264,
      "componentType": 5126,
      "count": 892,
      "max": [
        1,
        1,
        1
      ],
      "min": [
        -1,
        -1,
        -1
      ],
      "type": "VEC3"
    },
    {
      "bufferView": 3,
      "byteOffset": 35040,
      "componentType": 5126,
      "count": 892,
      "max": [
        0.99996304512023926,
        1,
        0.99998438358306885,
        1
      ],
      "min": [
        -1,
        -0.99999988079071045,
        -1,
        1
      ],
      "type": "VEC4"
    },
    {
      "bufferView": 1,
      "byteOffset": 17520,
      "componentType": 5126,
      "count": 892,
      "max": [
        0.42313000559806824,
        0.99171900749206543
      ],
      "min": [
        0.0070803500711917877,
        0.58251702785491943
      ],
      "type": "VEC2"
    },
    {
      "bufferView": 0,
      "byteOffset": 34248,
      "componentType": 5125,
      "count": 3333,
      "max": [
        891
      ],
      "min": [
        0
      ],
      "type": "SCALAR"
    }
  ],
  "asset": {
    "extras": {
      "author": "Ivan Vakulko (https://sketchfab.com/milos4)",
      "license": "CC-BY-4.0 (http://creativecommons.org/licenses/by/4.0/)",
      "source": "https://sketchfab.com/3d-models/phone-charger-usb-0d8a9b97143649399ae6c9b74787760a",
      "title": "Phone Charger USB"
    },
    "generator": "Sketchfab-7.57.0",
    "version": "2.0"
  },
  "bufferViews": [
    {
      "buffer": 0,
      "byteLength": 47580,
      "byteOffset": 0,
      "name": "floatBufferViews",
      "target": 34963
    },
    {
      "buffer": 0,
      "byteLength": 24656,
      "byteOffset": 47580,
      "byteStride": 8,
      "name": "floatBufferViews",
      "target": 34962
    },
    {
      "buffer": 0,
      "byteLength": 73968,
      "byteOffset": 72236,
      "byteStride": 12,
      "name": "floatBufferViews",
      "target": 34962
    },
    {
      "buffer": 0,
      "byteLength": 49312,
      "byteOffset": 146204,
      "byteStride": 16,
      "name": "floatBufferViews",
      "target": 34962
    }
  ],
  "buffers": [
    {
      "byteLength": 195516,
      "uri": "scene.bin"
    }
  ],
  "images": [
    {
      "uri": "textures/DefaultMaterial_baseColor.jpeg"
    },
    {
      "uri": "textures/DefaultMaterial_metallicRoughness.png"
    },
    {
      "uri": "textures/DefaultMaterial_normal.png"
    }
  ],
  "materials": [
    {
      "doubleSided": true,
      "name": "DefaultMaterial",
      "normalTexture": {
        "index": 2,
        "scale": 1,
        "texCoord": 0
      },
      "occlusionTexture": {
        "index": 1,
        "strength": 1,
        "texCoord": 0
      },
      "pbrMetallicRoughness": {
        "baseColorFactor": [
          1,
          1,
          1,
          1
        ],
        "baseColorTexture": {
          "index": 0,
          "texCoord": 0
        },
        "metallicFactor": 1,
        "metallicRoughnessTexture": {
          "index": 1,
          "texCoord": 0
        },
        "roughnessFactor": 1
      }
    }
  ],
  "meshes": [
    {
      "name": "defaultMaterial",
      "primitives": [
        {
          "attributes": {
            "NORMAL": 1,
            "POSITION": 0,
            "TANGENT": 2,
            "TEXCOORD_0": 3
          },
          "indices": 4,
          "material": 0,
          "mode": 4
        }
      ]
    },
    {
      "name": "defaultMaterial",
      "primitives": [
        {
          "attributes": {
            "NORMAL": 6,
            "POSITION": 5,
            "TANGENT": 7,
            "TEXCOORD_0": 8
          },
          "indices": 9,
          "material": 0,
          "mode": 4
        }
      ]
    },
    {
      "name": "defaultMaterial",
      "primitives": [
        {
          "attributes": {
            "NORMAL": 11,
            "POSITION": 10,
            "TANGENT": 12,
            "TEXCOORD_0": 13
          },
          "indices": 14,
          "material": 0,
          "mode": 4
        }
      ]
    },
    {
      "name": "defaultMaterial",
      "primitives": [
        {
          "attributes": {
            "NORMAL": 16,
            "POSITION": 15,
            "TANGENT": 17,
            "TEXCOORD_0": 18
          },
          "indices": 19,
          "material": 0,
          "mode": 4
        }
      ]
    }
  ],
  "nodes": [
    {
      "children": [
        1
      ],
      "name": "RootNode (gltf orientation matrix)",
      "rotation": [
        -0.70710678118654746,
        -0,
        -0,
        0.70710678118654757
      ]
    },
    {
      "children": [
        2
      ],
      "name": "RootNode (model correction matrix)"
    },
    {
      "children": [
        3,
        5,
        7,
        9
      ],
      "matrix": [
        1,
        0,
        0,
        0,
        0,
        -4.3711390063094768e-08,
        0.999999999999999,
        0,
        0,
        -0.999999999999999,
        -4.3711390063094768e-08,
        0,
        0,
        0,
        0,
        1
      ],
      "name": "Collada visual scene group"
    },
    {
      "children": [
        4
      ],
      "name": "Cylinder"
    },
    {
      "mesh": 0,
      "name": "defaultMaterial"
    },
    {
      "children": [
        6
      ],
      "name": "Cube.003"
    },
    {
      "mesh": 1,
      "name": "defaultMaterial"
    },
    {
      "children": [
        8
      ],
      "name": "Cube.001"
    },
    {
      "mesh": 2,
      "name": "defaultMaterial"
    },
    {
      "children": [
        10
      ],
      "name": "Cube"
    },
    {
      "mesh": 3,
      "name": "defaultMaterial"
    }
  ],
  "samplers": [
    {
      "magFilter": 9729,
      "minFilter": 9987,
      "wrapS": 10497,
      "wrapT": 10497
    }
  ],
  "scene": 0,
  "scenes": [
    {
      "name": "OSG_Scene",
      "nodes": [
        0
      ]
    }
  ],
  "textures": [
    {
      "sampler": 0,
      "source": 0
    },
    {
      "sampler": 0,
      "source": 1
    },
    {
      "sampler": 0,
      "source": 2
    }
  ]
}

