{
  "accessors": [
    {
      "bufferView": 2,
      "componentType": 5126,
      "count": 120,
      "max": [
        -2.0173940658569336,
        -8.087166786193848,
        0.1531739979982376
      ],
      "min": [
        -2.1649529933929443,
        -8.342098236083984,
        0.0872339978814125
      ],
      "type": "VEC3"
    },
    {
      "bufferView": 2,
      "byteOffset": 1440,
      "componentType": 5126,
      "count": 120,
      "max": [
        0.9929782152175903,
        0.998000979423523,
        1.0
      ],
      "min": [
        -0.9929782152175903,
        -0.9980072975158691,
        -1.0
      ],
      "type": "VEC3"
    },
    {
      "bufferView": 1,
      "componentType": 5126,
      "count": 120,
      "max": [
        0.8215759992599487,
        0.9918929934501648
      ],
      "min": [
        0.03505599871277809,
        0.038986001163721085
      ],
      "type": "VEC2"
    },
    {
      "bufferView": 0,
      "componentType": 5125,
      "count": 228,
      "type": "SCALAR"
    },
    {
      "bufferView": 2,
      "byteOffset": 2880,
      "componentType": 5126,
      "count": 845,
      "max": [
        0.06130199879407883,
        3.5133190155029297,
        1.4530409574508667
      ],
      "min": [
        -8.421646118164063,
        -7.929849147796631,
        0.05652900040149689
      ],
      "type": "VEC3"
    },
    {
      "bufferView": 2,
      "byteOffset": 13020,
      "componentType": 5126,
      "count": 845,
      "max": [
        0.9982426166534424,
        0.9823821783065796,
        0.999993085861206
      ],
      "min": [
        -0.9982941746711731,
        -0.9818994998931885,
        -0.9999927282333374
      ],
      "type": "VEC3"
    },
    {
      "bufferView": 1,
      "byteOffset": 960,
      "componentType": 5126,
      "count": 845,
      "max": [
        1.0,
        1.0
      ],
      "min": [
        0.0,
        0.0
      ],
      "type": "VEC2"
    },
    {
      "bufferView": 0,
      "byteOffset": 912,
      "componentType": 5125,
      "count": 4608,
      "type": "SCALAR"
    },
    {
      "bufferView": 2,
      "byteOffset": 23160,
      "componentType": 5126,
      "count": 293,
      "max": [
        -2.2430169582366943,
        -7.772854804992676,
        0.23755300045013428
      ],
      "min": [
        -3.271228075027466,
        -8.338401794433594,
        0.0020149999763816595
      ],
      "type": "VEC3"
    },
    {
      "bufferView": 2,
      "byteOffset": 26676,
      "componentType": 5126,
      "count": 293,
      "max": [
        0.958497941493988,
        0.958497941493988,
        1.0
      ],
      "min": [
        -0.958497941493988,
        -0.958497941493988,
        -1.0
      ],
      "type": "VEC3"
    },
    {
      "bufferView": 1,
      "byteOffset": 7720,
      "componentType": 5126,
      "count": 293,
      "max": [
        0.9269160032272339,
        0.7732880115509033
      ],
      "min": [
        0.0,
        0.0
      ],
      "type": "VEC2"
    },
    {
      "bufferView": 0,
      "byteOffset": 19344,
      "componentType": 5125,
      "count": 1044,
      "type": "SCALAR"
    },
    {
      "bufferView": 2,
      "byteOffset": 30192,
      "componentType": 5126,
      "count": 356,
      "max": [
        0.7005429863929749,
        -1.6757090091705322,
        2.3922650814056396
      ],
      "min": [
        -2.342437982559204,
        -8.367518424987793,
        0.08725599944591522
      ],
      "type": "VEC3"
    },
    {
      "bufferView": 2,
      "byteOffset": 34464,
      "componentType": 5126,
      "count": 356,
      "max": [
        1.0,
        1.0,
        1.0
      ],
      "min": [
        -1.0,
        -1.0,
        -1.0
      ],
      "type": "VEC3"
    },
    {
      "bufferView": 1,
      "byteOffset": 10064,
      "componentType": 5126,
      "count": 356,
      "max": [
        0.9934639930725098,
        0.9450389742851257
      ],
      "min": [
        0.010607000440359116,
        0.2640160024166107
      ],
      "type": "VEC2"
    },
    {
      "bufferView": 0,
      "byteOffset": 23520,
      "componentType": 5125,
      "count": 1194,
      "type": "SCALAR"
    },
    {
      "bufferView": 2,
      "byteOffset": 38736,
      "componentType": 5126,
      "count": 2733,
      "max": [
        1.0542420148849487,
        -0.5242990255355835,
        2.7404210567474365
      ],
      "min": [
        -1.0542420148849487,
        -4.032110214233398,
        0.004430000204592943
      ],
      "type": "VEC3"
    },
    {
      "bufferView": 2,
      "byteOffset": 71532,
      "componentType": 5126,
      "count": 2733,
      "max": [
        1.0,
        1.0,
        1.0
      ],
      "min": [
        -1.0,
        -1.0,
        -1.0
      ],
      "type": "VEC3"
    },
    {
      "bufferView": 1,
      "byteOffset": 12912,
      "componentType": 5126,
      "count": 2733,
      "max": [
        1.0,
        0.9988800287246704
      ],
      "min": [
        0.0,
        0.0
      ],
      "type": "VEC2"
    },
    {
      "bufferView": 0,
      "byteOffset": 28296,
      "componentType": 5125,
      "count": 11466,
      "type": "SCALAR"
    }
  ],
  "asset": {
    "extras": {
      "author": "Lonk (https://sketchfab.com/lonkplus)",
      "license": "CC-BY-4.0 (http://creativecommons.org/licenses/by/4.0/)",
      "source": "https://sketchfab.com/3d-models/ipad-charger-429f8e1add81409cabb0c8ad0af8dc5c",
      "title": "IPad Charger"
    },
    "generator": "Sketchfab-11.79.0",
    "version": "2.0"
  },
  "bufferViews": [
    {
      "buffer": 0,
      "byteLength": 74160,
      "name": "floatBufferViews",
      "target": 34963
    },
    {
      "buffer": 0,
      "byteLength": 34776,
      "byteOffset": 74160,
      "byteStride": 8,
      "name": "floatBufferViews",
      "target": 34962
    },
    {
      "buffer": 0,
      "byteLength": 104328,
      "byteOffset": 108936,
      "byteStride": 12,
      "name": "floatBufferViews",
      "target": 34962
    }
  ],
  "buffers": [
    {
      "byteLength": 213264,
      "uri": "scene.bin"
    }
  ],
  "materials": [
    {
      "doubleSided": true,
      "name": "Metal_Conductor_Gold.001",
      "pbrMetallicRoughness": {
        "metallicFactor": 0.0,
        "roughnessFactor": 0.6
      }
    },
    {
      "doubleSided": true,
      "name": "None",
      "pbrMetallicRoughness": {
        "baseColorFactor": [
          0.6912592433859023,
          0.6912592433859023,
          0.6912592433859023,
          1.0
        ],
        "metallicFactor": 0.0,
        "roughnessFactor": 0.6
      }
    },
    {
      "doubleSided": true,
      "name": "iPad_Charger_Metal_Conductor.001",
      "pbrMetallicRoughness": {
        "roughnessFactor": 0.28747818737877656
      }
    },
    {
      "doubleSided": true,
      "name": "iPad_Charger_PVC.001",
      "pbrMetallicRoughness": {
        "baseColorFactor": [
          0.7494345424331753,
          0.7494345424331753,
          0.7494345424331753,
          1.0
        ],
        "metallicFactor": 0.0,
        "roughnessFactor": 0.6
      }
    },
    {
      "doubleSided": true,
      "name": "iPad_Charger_Rubber_Wire_Insulator.001",
      "pbrMetallicRoughness": {
        "baseColorFactor": [
          0.7579697625090449,
          0.7579697625090449,
          0.7579697625090449,
          1.0
        ],
        "metallicFactor": 0.0,
        "roughnessFactor": 0.6
      }
    }
  ],
  "meshes": [
    {
      "name": "Object_0",
      "primitives": [
        {
          "attributes": {
            "NORMAL": 1,
            "POSITION": 0,
            "TEXCOORD_0": 2
          },
          "indices": 3,
          "material": 0,
          "mode": 4
        }
      ]
    },
    {
      "name": "Object_1",
      "primitives": [
        {
          "attributes": {
            "NORMAL": 5,
            "POSITION": 4,
            "TEXCOORD_0": 6
          },
          "indices": 7,
          "material": 1,
          "mode": 4
        }
      ]
    },
    {
      "name": "Object_2",
      "primitives": [
        {
          "attributes": {
            "NORMAL": 9,
            "POSITION": 8,
            "TEXCOORD_0": 10
          },
          "indices": 11,
          "material": 4,
          "mode": 4
        }
      ]
    },
    {
      "name": "Object_3",
      "primitives": [
        {
          "attributes": {
            "NORMAL": 13,
            "POSITION": 12,
            "TEXCOORD_0": 14
          },
          "indices": 15,
          "material": 2,
          "mode": 4
        }
      ]
    },
    {
      "name": "Object_4",
      "primitives": [
        {
          "attributes": {
            "NORMAL": 17,
            "POSITION": 16,
            "TEXCOORD_0": 18
          },
          "indices": 19,
          "material": 3,
          "mode": 4
        }
      ]
    }
  ],
  "nodes": [
    {
      "children": [
        1
      ],
      "matrix": [
        0.09910353273153305,
        0.0,
        0.0,
        0.0,
        0.0,
        2.2005404772048165e-17,
        -0.09910353273153305,
        0.0,
        0.0,
        0.09910353273153305,
        2.2005404772048165e-17,
        0.0,
        0.0,
        0.0,
        0.0,
        1.0
      ],
      "name": "Sketchfab_model"
    },
    {
      "children": [
        2,
        3,
        4,
        5,
        6
      ],
      "name": "ad3105c204974d398543ee54703e0767.obj.cleaner.materialmerger.gles"
    },
    {
      "mesh": 0,
      "name": "Object_2"
    },
    {
      "mesh": 1,
      "name": "Object_3"
    },
    {
      "mesh": 2,
      "name": "Object_4"
    },
    {
      "mesh": 3,
      "name": "Object_5"
    },
    {
      "mesh": 4,
      "name": "Object_6"
    }
  ],
  "scene": 0,
  "scenes": [
    {
      "name": "Sketchfab_Scene",
      "nodes": [
        0
      ]
    }
  ]
}
