{
  "accessors": [
    {
      "bufferView": 2,
      "componentType": 5126,
      "count": 32761,
      "max": [
        21.42609977722168,
        97.439552307128906,
        22.989002227783203
      ],
      "min": [
        -18.9735107421875,
        38.063571929931641,
        -23.475650787353516
      ],
      "type": "VEC3"
    },
    {
      "bufferView": 2,
      "byteOffset": 393132,
      "componentType": 5126,
      "count": 32761,
      "max": [
        0.99997204542160034,
        0.99969035387039185,
        0.99999672174453735
      ],
      "min": [
        -0.99998313188552856,
        -0.70487791299819946,
        -0.9999116063117981
      ],
      "type": "VEC3"
    },
    {
      "bufferView": 3,
      "componentType": 5126,
      "count": 32761,
      "max": [
        0.73365408182144165,
        0.96022987365722656,
        0.98954308032989502,
        1
      ],
      "min": [
        -0.99999338388442993,
        -0.99997454881668091,
        -0.99820810556411743,
        1
      ],
      "type": "VEC4"
    },
    {
      "bufferView": 1,
      "componentType": 5126,
      "count": 32761,
      "max": [
        0.99261474609375,
        1.000030517578125
      ],
      "min": [
        -3.0517578125e-05,
        -3.0517578125e-05
      ],
      "type": "VEC2"
    },
    {
      "bufferView": 0,
      "componentType": 5125,
      "count": 194400,
      "max": [
        32760
      ],
      "min": [
        0
      ],
      "type": "SCALAR"
    }
  ],
  "asset": {
    "extras": {
      "author": "Sergey Khanin (https://sketchfab.com/Sergey.Khanin)",
      "license": "CC-BY-4.0 (http://creativecommons.org/licenses/by/4.0/)",
      "source": "https://sketchfab.com/3d-models/cloth-base-mesh-d50a4def2e5a42cb8f33ee143a1ebebc",
      "title": "Cloth base mesh"
    },
    "generator": "Sketchfab-6.84.0",
    "version": "2.0"
  },
  "bufferViews": [
    {
      "buffer": 0,
      "byteLength": 777600,
      "byteOffset": 0,
      "name": "floatBufferViews",
      "target": 34963
    },
    {
      "buffer": 0,
      "byteLength": 262088,
      "byteOffset": 777600,
      "byteStride": 8,
      "name": "floatBufferViews",
      "target": 34962
    },
    {
      "buffer": 0,
      "byteLength": 786264,
      "byteOffset": 1039688,
      "byteStride": 12,
      "name": "floatBufferViews",
      "target": 34962
    },
    {
      "buffer": 0,
      "byteLength": 524176,
      "byteOffset": 1825952,
      "byteStride": 16,
      "name": "floatBufferViews",
      "target": 34962
    }
  ],
  "buffers": [
    {
      "byteLength": 2350128,
      "uri": "scene.bin"
    }
  ],
  "materials": [
    {
      "doubleSided": true,
      "emissiveFactor": [
        0,
        0,
        0
      ],
      "name": "Cloth",
      "pbrMetallicRoughness": {
        "baseColorFactor": [
          0.5,
          0.5,
          0.5,
          1
        ],
        "metallicFactor": 0,
        "roughnessFactor": 0
      }
    }
  ],
  "meshes": [
    {
      "name": "Cloth_Cloth_0",
      "primitives": [
        {
          "attributes": {
            "NORMAL": 1,
            "POSITION": 0,
            "TANGENT": 2,
            "TEXCOORD_0": 3
          },
          "indices": 4,
          "material": 0,
          "mode": 4
        }
      ]
    }
  ],
  "nodes": [
    {
      "children": [
        1
      ],
      "name": "RootNode (gltf orientation matrix)",
      "rotation": [
        -0.70710678118654746,
        -0,
        -0,
        0.70710678118654757
      ]
    },
    {
      "children": [
        2
      ],
      "name": "RootNode (model correction matrix)"
    },
    {
      "children": [
        3
      ],
      "matrix": [
        1,
        0,
        0,
        0,
        0,
        0,
        1,
        0,
        0,
        -1,
        0,
        0,
        0,
        0,
        0,
        1
      ],
      "name": "c72eac9e275045db84ea9849c6855faf.fbx"
    },
    {
      "children": [
        4
      ],
      "name": "RootNode"
    },
    {
      "children": [
        5
      ],
      "name": "Cloth"
    },
    {
      "mesh": 0,
      "name": "Cloth_Cloth_0"
    }
  ],
  "scene": 0,
  "scenes": [
    {
      "name": "OSG_Scene",
      "nodes": [
        0
      ]
    }
  ]
}

